<?xml version="1.0" encoding="UTF-8"?>
<svg id="Capa_1" data-name="Capa 1" xmlns="http://www.w3.org/2000/svg" viewBox="0 0 128 124">
  <path d="m63.97,104c-23.15-.01-42-18.89-41.97-42.05.03-23.16,18.91-41.98,42.08-41.94,23.15.04,41.97,18.95,41.92,42.11-.06,23.1-18.92,41.9-42.03,41.89ZM27.25,62.02c.01,20.24,16.5,36.72,36.73,36.73,20.23,0,36.73-16.47,36.76-36.71.03-20.27-16.53-36.82-36.79-36.78-20.25.04-36.71,16.53-36.7,36.76Z"/>
  <path d="m66.63,52.66c0,.59,0,.97,0,1.36,0,7.8,0,15.59,0,23.39,0,2.23-1.84,3.57-3.71,2.71-1.17-.54-1.55-1.53-1.55-2.77.01-5.76,0-11.51,0-17.27,0-2.4,0-4.8,0-7.39-.38.34-.65.55-.89.79-2.55,2.55-5.08,5.12-7.66,7.64-1.57,1.54-4.07.94-4.43-1.13-.13-.75.13-1.85.64-2.38,4.33-4.47,8.75-8.86,13.18-13.24,1.06-1.05,2.55-1.03,3.63.04,4.4,4.36,8.78,8.73,13.13,13.13,1.1,1.11,1.03,2.69-.03,3.71-1.06,1.02-2.58,1.02-3.72-.1-2.57-2.53-5.11-5.09-7.66-7.64-.25-.25-.51-.48-.93-.86Z"/>
</svg>