<?xml version="1.0" encoding="UTF-8"?>
<svg id="Capa_1" data-name="Capa 1" xmlns="http://www.w3.org/2000/svg" viewBox="0 0 200 200">
  <path class="cls-1" d="m100,167.2c-37,0-67.2-30.1-67.2-67.2S62.9,32.8,100,32.8s67.2,30.1,67.2,67.2-30.1,67.2-67.2,67.2Zm0-127.2c-33.1,0-60,26.9-60,60s26.9,60,60,60,60-26.9,60-60-26.9-60-60-60Z"/>
  <g id="layer1">
    <path class="cls-1" d="m122.98,104.18l-31.81,22.15c-2.7,1.88-6.16-.4-6.16-4.18v-44.3c0-3.78,3.46-6.06,6.16-4.18l31.81,22.15c1.92,1.32,2.59,4.26,1.49,6.56-.36.75-.87,1.37-1.49,1.79"/>
  </g>
</svg>