<?xml version="1.0" encoding="UTF-8"?>
<svg id="Capa_1" data-name="Capa 1" xmlns="http://www.w3.org/2000/svg" viewBox="0 0 200 200">
  <path class="cls-1" d="m100,167.2c-37,0-67.2-30.1-67.2-67.2S62.9,32.8,100,32.8s67.2,30.1,67.2,67.2-30.1,67.2-67.2,67.2Zm0-127.2c-33.1,0-60,26.9-60,60s26.9,60,60,60,60-26.9,60-60-26.9-60-60-60Z"/>
  <g id="layer1">
    <path class="cls-1" d="m88,81.25c0-6.21,5.37-11.25,12-11.25s12,5.04,12,11.25v18.75c0,6.21-5.37,11.25-12,11.25s-12-5.04-12-11.25v-18.75Z"/>
    <path class="cls-1" d="m82,94.38c1.1,0,2,.84,2,1.88v3.75c0,8.28,7.16,15,16,15s16-6.72,16-15v-3.75c0-1.04.9-1.88,2-1.88s2,.84,2,1.88v3.75c0,9.63-7.78,17.69-18,18.66v7.59h12c1.1,0,2,.84,2,1.88s-.9,1.88-2,1.88h-28c-1.1,0-2-.84-2-1.88s.9-1.88,2-1.88h12v-7.59c-10.22-.96-18-9.03-18-18.66v-3.75c0-1.04.9-1.88,2-1.88"/>
  </g>
</svg>