<?xml version="1.0" encoding="UTF-8"?>
<svg id="Capa_1" data-name="Capa 1" xmlns="http://www.w3.org/2000/svg" viewBox="0 0 200 200">
  <path class="cls-1" d="m100,167.2c-37,0-67.2-30.1-67.2-67.2S62.9,32.8,100,32.8s67.2,30.1,67.2,67.2-30.1,67.2-67.2,67.2Zm0-127.2c-33.1,0-60,26.9-60,60s26.9,60,60,60,60-26.9,60-60-26.9-60-60-60Z"/>
  <g id="layer1">
    <path class="cls-1" d="m87.5,75c4.14,0,7.5,3.73,7.5,8.33v33.33c0,4.6-3.36,8.33-7.5,8.33s-7.5-3.73-7.5-8.33v-33.33c0-4.6,3.36-8.33,7.5-8.33m25,0c4.14,0,7.5,3.73,7.5,8.33v33.33c0,4.6-3.36,8.33-7.5,8.33s-7.5-3.73-7.5-8.33v-33.33c0-4.6,3.36-8.33,7.5-8.33"/>
  </g>
</svg>