<?xml version="1.0" encoding="UTF-8"?>
<svg id="Capa_1" data-name="Capa 1" xmlns="http://www.w3.org/2000/svg" viewBox="0 0 128 124">
  <path d="m22,61.97c.01-23.15,18.89-42,42.05-41.97,23.16.03,41.98,18.91,41.94,42.08-.04,23.15-18.95,41.97-42.11,41.92-23.1-.06-41.9-18.92-41.89-42.03ZM63.98,25.25c-20.24.01-36.72,16.5-36.73,36.73,0,20.23,16.47,36.73,36.71,36.76,20.27.03,36.82-16.53,36.78-36.79-.04-20.25-16.53-36.71-36.76-36.7Z"/>
  <path d="m73.34,64.63c-.59,0-.97,0-1.36,0-7.8,0-15.59,0-23.39,0-2.23,0-3.57-1.84-2.71-3.71.54-1.17,1.53-1.55,2.77-1.55,5.76.01,11.51,0,17.27,0,2.4,0,4.8,0,7.39,0-.34-.38-.55-.65-.79-.89-2.55-2.55-5.12-5.08-7.64-7.66-1.54-1.57-.94-4.07,1.13-4.43.75-.13,1.85.13,2.38.64,4.47,4.33,8.86,8.75,13.24,13.18,1.05,1.06,1.03,2.55-.04,3.63-4.36,4.4-8.73,8.78-13.13,13.13-1.11,1.1-2.69,1.03-3.71-.03-1.02-1.06-1.02-2.58.1-3.72,2.53-2.57,5.09-5.11,7.64-7.66.25-.25.48-.51.86-.93Z"/>
</svg>