<?xml version="1.0" encoding="UTF-8"?>
<svg id="Capa_1" data-name="Capa 1" xmlns="http://www.w3.org/2000/svg" viewBox="0 0 128 124">
  <path d="m63.75,18.46c23.94-.09,43.67,19.47,43.78,43.42.11,24.2-18.98,43.57-43.04,43.66-24.17.09-43.93-19.4-44.01-43.42-.09-24.32,18.99-43.57,43.28-43.66Zm39.09,43.36c.05-21.28-17.24-38.61-38.57-38.67-21.26-.06-38.61,17.26-38.66,38.58-.05,21.27,17.26,38.63,38.57,38.67,21.27.04,38.61-17.26,38.66-38.58Z"/>
  <g>
    <path d="m76.51,52.55c-1.77,0-3.48,0-5.18,0-3.73,0-6.08-2.36-6.08-6.1,0-1.69,0-3.38,0-5.17h-.68c-5.3,0-10.59,0-15.89,0-1.49,0-2.2.71-2.2,2.17,0,12.08,0,24.15,0,36.23,0,1.43.73,2.15,2.16,2.15,1.11,0,2.21,0,3.32,0,1.18,0,2.01.77,2.02,1.85.02,1.1-.83,1.91-2.03,1.9-1.54-.01-3.1.07-4.62-.14-2.64-.36-4.56-2.71-4.61-5.37-.01-.67,0-1.33,0-2,0-11.51,0-23.03,0-34.54,0-3.64,2.38-6.02,6.04-6.02,5.98,0,11.97,0,17.95,0,.83,0,1.47.27,2.05.86,3.54,3.57,7.09,7.12,10.66,10.66.59.58.85,1.23.85,2.06-.02,4.8,0,9.59-.01,14.39,0,.98-.42,1.65-1.18,1.95-1.29.5-2.56-.39-2.57-1.83-.02-2.57,0-5.13,0-7.7,0-1.75,0-3.5,0-5.35Zm-2.76-3.76c-1.56-1.66-3.06-3.24-4.55-4.83l-.2.17c0,.94-.02,1.87,0,2.81.03,1.04.79,1.8,1.84,1.83.94.03,1.87,0,2.9,0Z"/>
    <path d="m69.19,78.03c0-1.77,0-3.55,0-5.32,0-1.41.73-2.14,2.12-2.13,1.19.01,2.39-.06,3.55.12,2.71.42,4.63,2.73,4.64,5.47,0,1.62.07,3.27-.14,4.87-.35,2.56-2.69,4.48-5.3,4.55-.96.02-1.92.01-2.88,0-1.22-.01-1.98-.76-1.99-2-.02-1.86,0-3.71,0-5.57Zm3.78,3.75c1.91.27,2.79-.47,2.79-2.31,0-1,0-2,0-3,0-1.61-1.19-2.47-2.79-2.02v7.33Z"/>
    <path d="m60.74,79.96c0,1.24,0,2.39,0,3.53,0,1.26-.78,2.11-1.89,2.1-1.09,0-1.86-.85-1.86-2.07,0-3.63,0-7.25,0-10.88,0-1.31.75-2.07,2.06-2.06,1.48.01,2.97-.08,4.43.13,2.43.35,4.01,2.54,3.81,5-.19,2.33-2.16,4.18-4.54,4.25-.64.02-1.28,0-2,0Zm.03-3.76c.68,0,1.28.03,1.88,0,.52-.03.86-.33.88-.87.03-.54-.28-.9-.79-.96-.65-.06-1.31-.02-1.98-.02v1.85Z"/>
    <path d="m85.16,74.33v1.88c.57,0,1.12,0,1.67,0,1.22,0,2.06.77,2.06,1.87,0,1.1-.84,1.87-2.05,1.89-.54,0-1.08,0-1.7,0,0,1.23,0,2.43,0,3.63,0,.82-.33,1.46-1.09,1.81-1.23.57-2.64-.26-2.65-1.62-.04-3.79-.03-7.59,0-11.38,0-1.04.79-1.81,1.84-1.83,1.9-.02,3.79-.03,5.69,0,1.07.01,1.86.86,1.84,1.89-.01,1.03-.81,1.83-1.89,1.85-1.22.02-2.45,0-3.72,0Z"/>
    <path d="m59.61,61.12c0-2.3-.01-4.44,0-6.59.01-1.46,1.33-2.37,2.62-1.82.79.34,1.14,1,1.14,1.85,0,1.94,0,3.88,0,5.81,0,.2,0,.4,0,.73.28-.25.47-.43.67-.6.78-.64,1.86-.58,2.55.13.67.69.76,1.79.09,2.5-1.29,1.36-2.62,2.68-3.97,3.98-.7.66-1.75.65-2.45-.02-1.32-1.27-2.62-2.57-3.89-3.89-.73-.75-.67-1.88.05-2.59.72-.71,1.8-.73,2.6-.04.17.15.33.3.6.55Z"/>
  </g>
</svg>