<?xml version="1.0" encoding="UTF-8"?>
<svg id="Capa_1" data-name="Capa 1" xmlns="http://www.w3.org/2000/svg" viewBox="0 0 128 124">
  <path d="m63.75,18.46c23.94-.09,43.67,19.47,43.78,43.42.11,24.2-18.98,43.57-43.04,43.66-24.17.09-43.93-19.4-44.01-43.42-.09-24.32,18.99-43.57,43.28-43.66Zm39.09,43.36c.05-21.28-17.24-38.61-38.57-38.67-21.26-.06-38.61,17.26-38.66,38.58-.05,21.27,17.26,38.63,38.57,38.67,21.27.04,38.61-17.26,38.66-38.58Z"/>
  <path d="m43.64,62.24c-.66.55-1.09.9-1.52,1.25-1.33,1.09-2.87,1.08-3.86-.04-1.02-1.15-.8-2.73.56-3.9,5.68-4.87,11.36-9.73,17.04-14.6,2.13-1.83,4.26-3.66,6.4-5.48,1.33-1.13,2.57-1.15,3.88-.03,7.85,6.71,15.69,13.43,23.53,20.16,1.28,1.1,1.46,2.73.49,3.83-.98,1.12-2.54,1.14-3.86.05-.43-.35-.85-.7-1.51-1.25,0,.69,0,1.09,0,1.49,0,5.96,0,11.93,0,17.89,0,2.44-.87,3.33-3.27,3.33-11.54,0-23.09,0-34.63,0-2.39,0-3.26-.9-3.26-3.34,0-5.96,0-11.93,0-17.89,0-.4,0-.8,0-1.48Zm35.97,17.51c.03-.3.07-.45.07-.59,0-6.87.02-13.74-.02-20.61,0-.44-.33-1-.68-1.31-4.18-3.63-8.4-7.23-12.6-10.84-.71-.61-1.43-1.21-2.16-1.83-4.93,4.23-9.76,8.39-14.62,12.51-.61.52-.84,1.05-.84,1.84.03,6.53.02,13.06.02,19.59v1.22h7.6c.05-.15.1-.22.1-.29.01-3.15.01-6.3.03-9.45,0-2.01.99-3.04,2.97-3.04,3.19-.01,6.38-.01,9.56,0,1.92,0,2.93,1.03,2.94,2.97.01,2.89,0,5.77,0,8.66,0,.4.03.8.05,1.18h7.59Zm-12.9-.01v-7.59h-4.95v7.59h4.95Z"/>
</svg>