<?xml version="1.0" encoding="utf-8"?>
<!-- Generator: Adobe Illustrator 27.0.1, SVG Export Plug-In . SVG Version: 6.00 Build 0)  -->
<svg version="1.1" id="Capa_1" xmlns="http://www.w3.org/2000/svg" xmlns:xlink="http://www.w3.org/1999/xlink" x="0px" y="0px" viewBox="0 0 200 200" style="enable-background:new 0 0 200 200;" xml:space="preserve" fill="#000000">
	<g>
		<g>
			<g>
				<path class="st0" d="M100,167.18c-37.05,0-67.18-30.14-67.18-67.18c0-37.05,30.14-67.18,67.18-67.18
					c37.04,0,67.18,30.14,67.18,67.18C167.18,137.04,137.05,167.18,100,167.18z M100,40.03c-33.07,0-59.97,26.9-59.97,59.97
					c0,33.07,26.9,59.97,59.97,59.97c33.07,0,59.97-26.9,59.97-59.97C159.97,66.93,133.07,40.03,100,40.03z"/>
			</g>
			<g>
				<path class="st1" d="M89.46,100.32v38.94c0,0.56,0.45,1.01,1.01,1.01h14.46c0.56,0,1.01-0.45,1.01-1.01V99.68h10.48
					c0.53,0,0.97-0.4,1.01-0.93l1.01-11.92c0.05-0.59-0.42-1.1-1.01-1.1h-11.49v-8.46c0-1.98,1.61-3.59,3.59-3.59h8.08
					c0.56,0,1.01-0.45,1.01-1.01V60.74c0-0.56-0.45-1.01-1.01-1.01h-13.65c-8.01,0-14.51,6.49-14.51,14.51v11.49h-7.23
					c-0.56,0-1.01,0.45-1.01,1.01v11.92c0,0.56,0.45,1.01,1.01,1.01h7.23V100.32z"/>
			</g>
		</g>
	</g>
</svg>
