<?xml version="1.0" encoding="UTF-8"?>
<svg id="Capa_1" data-name="Capa 1" xmlns="http://www.w3.org/2000/svg" viewBox="0 0 95 90">
  <path d="m49.51,16.5c18.02,0,32.63,14.61,32.63,32.63,0,18.02-14.61,32.63-32.63,32.63-18.02,0-32.63-14.61-32.63-32.63,0-18.02,14.61-32.63,32.63-32.63Zm1.37,36.96c6.78-1.06,10.78-7,10.01-13-.68-5.29-5.26-9.6-10.52-9.89-5.82-.32-10.68,3.23-12.02,8.9-.77,3.25-.15,6.31,1.76,9.06,1.91,2.76,4.62,4.3,7.57,4.82-1.94.5-4.2.87-6.29,1.66-6.19,2.34-10.55,6.66-13.09,12.79-.1.25-.02.74.17.93,1.04,1.04,2.07,2.11,3.24,3,7.7,5.9,16.29,7.61,25.65,5.11,5.15-1.38,9.51-4.15,13.18-8.02.34-.36.44-.65.2-1.11-.49-.93-.86-1.91-1.4-2.81-4.16-6.89-10.31-10.6-18.45-11.43Z"/>
</svg>