<?xml version="1.0" encoding="utf-8"?>
<!-- Generator: Adobe Illustrator 27.0.1, SVG Export Plug-In . SVG Version: 6.00 Build 0)  -->
<svg version="1.1" id="Capa_1" xmlns="http://www.w3.org/2000/svg" xmlns:xlink="http://www.w3.org/1999/xlink" x="0px" y="0px" viewBox="0 0 200 200" style="enable-background:new 0 0 200 200;" xml:space="preserve" fill="#000000">
	<g>
		<g>
			<path class="st0" d="M100,166.75c-36.8,0-66.74-29.94-66.74-66.74c0-36.8,29.94-66.75,66.74-66.75c36.8,0,66.75,29.94,66.75,66.75
				C166.75,136.8,136.8,166.75,100,166.75z M100,39.6c-33.31,0-60.4,27.1-60.4,60.4c0,33.31,27.1,60.4,60.4,60.4s60.4-27.1,60.4-60.4
				C160.4,66.69,133.31,39.6,100,39.6z M122.51,72.92c-2.73,0-4.94,2.21-4.94,4.94c0,2.73,2.21,4.94,4.94,4.94
				c2.73,0,4.94-2.21,4.94-4.94C127.44,75.13,125.23,72.92,122.51,72.92z M100.55,79.25c-11.44,0-20.75,9.31-20.75,20.75
				s9.31,20.75,20.75,20.75s20.75-9.31,20.75-20.75S111.99,79.25,100.55,79.25z M100.55,113.29c-7.33,0-13.29-5.96-13.29-13.29
				s5.96-13.29,13.29-13.29s13.29,5.96,13.29,13.29S107.88,113.29,100.55,113.29z M142.41,82.76c0-13.98-11.33-25.3-25.31-25.3h-33.4
				c-13.98,0-25.31,11.33-25.31,25.3v33.4c0,13.98,11.33,25.3,25.31,25.3h33.4c13.98,0,25.31-11.33,25.31-25.3V82.76z M134.49,116.16
				c0,9.6-7.78,17.38-17.38,17.38h-33.4c-9.6,0-17.38-7.78-17.38-17.38v-33.4c0-9.6,7.78-17.38,17.38-17.38h33.4
				c9.6,0,17.38,7.78,17.38,17.38V116.16z"/>
		</g>
	</g>
</svg>
