<?xml version="1.0" encoding="utf-8"?>
<!-- Generator: Adobe Illustrator 27.0.1, SVG Export Plug-In . SVG Version: 6.00 Build 0)  -->
<svg version="1.1" id="Capa_1" xmlns="http://www.w3.org/2000/svg" xmlns:xlink="http://www.w3.org/1999/xlink" x="0px" y="0px" viewBox="0 0 200 200" style="enable-background:new 0 0 200 200;" xml:space="preserve" fill="#000000">
	<g>
		<g>
			<g>
				<g>
					<path class="st0" d="M100,167.07c-36.98,0-67.07-30.09-67.07-67.07c0-36.98,30.09-67.07,67.07-67.07
						c36.98,0,67.07,30.09,67.07,67.07C167.07,136.98,136.98,167.07,100,167.07z M100,40.15C67,40.15,40.15,67,40.15,100
						c0,33,26.85,59.85,59.85,59.85c33,0,59.85-26.85,59.85-59.85C159.85,67,133,40.15,100,40.15z"/>
				</g>
				<g>
					<g>
						<path class="st0" d="M137.92,105.11v25.04c0,0.62-0.5,1.12-1.12,1.12h-12.93c-0.62,0-1.12-0.5-1.12-1.12v-23.29
							c0-6.13-2.19-10.31-7.68-10.31c-4.19,0-6.68,2.82-7.78,5.55c-0.4,0.98-0.5,2.33-0.5,3.7v24.36c0,0.62-0.5,1.12-1.12,1.12H92.74
							c-0.62,0-1.12-0.5-1.12-1.12c0.03-6.2,0.16-36.29,0.03-43.37c-0.01-0.63,0.49-1.13,1.12-1.13h12.9c0.62,0,1.12,0.5,1.12,1.12
							v5.34c-0.03,0.05-0.07,0.1-0.1,0.15h0.1v-0.15c2.02-3.1,5.61-7.54,13.67-7.54C130.44,84.58,137.92,91.1,137.92,105.11
							L137.92,105.11z M69.18,131.27h12.92c0.62,0,1.12-0.5,1.12-1.12V86.77c0-0.62-0.5-1.12-1.12-1.12H69.18
							c-0.62,0-1.12,0.5-1.12,1.12v43.38C68.06,130.77,68.56,131.27,69.18,131.27z"/>
					</g>
				</g>
			</g>
			<g>
				<circle class="st0" cx="75.19" cy="71.72" r="8.12"/>
			</g>
		</g>
	</g>
</svg>
