<?xml version="1.0" encoding="UTF-8"?>
<svg id="svg5" xmlns="http://www.w3.org/2000/svg" viewBox="-14 -14 79.58 79.58" fill="#000">
  <defs>
    <style>
      .cls-1 {
        stroke-width: 0px;
      }
    </style>
  </defs>
  <path class="cls-1" d="m27.29,54.58C12.24,54.58,0,42.34,0,27.29S12.24,0,27.29,0s27.29,12.24,27.29,27.29-12.24,27.29-27.29,27.29Zm0-51.65C13.86,2.93,2.93,13.86,2.93,27.29s10.93,24.36,24.36,24.36,24.36-10.93,24.36-24.36S40.73,2.93,27.29,2.93Z"/>
  <g id="layer1">
    <path id="path1009" class="cls-1" d="m12.8,14.6l11.14,14.89-11.21,12.11h2.52l9.81-10.6,7.93,10.6h8.59l-11.77-15.73,10.43-11.27h-2.52l-9.04,9.76-7.3-9.76h-8.59Zm3.71,1.86h3.94l17.42,23.29h-3.94l-17.42-23.29Z"/>
  </g>
</svg>